<svg xmlns="http://www.w3.org/2000/svg" width="120" height="120" viewBox="0 0 120 120" fill="none">
  <circle cx="60" cy="60" r="50" fill="rgba(99, 102, 241, 0.1)" stroke="rgba(99, 102, 241, 0.3)" stroke-width="2"/>
  <rect x="25" y="60" width="6" height="30" rx="3" fill="#6366f1"/>
  <rect x="35" y="45" width="6" height="45" rx="3" fill="#8b5cf6"/>
  <rect x="45" y="25" width="6" height="65" rx="3" fill="#a855f7"/>
  <rect x="55" y="50" width="6" height="40" rx="3" fill="#c084fc"/>
  <rect x="65" y="35" width="6" height="55" rx="3" fill="#e879f9"/>
  <rect x="75" y="15" width="6" height="75" rx="3" fill="#fbbf24"/>
  <rect x="85" y="40" width="6" height="50" rx="3" fill="#10b981"/>
  <path d="M25 75 L35 60 L45 45 L55 65 L65 50 L75 30 L85 40" stroke="#10b981" stroke-width="3" fill="none" stroke-linecap="round"/>
  <rect x="90" y="20" width="25" height="15" rx="3" fill="rgba(236, 72, 153, 0.2)" stroke="#ec4899"/>
  <text x="102" y="30" font-size="8" fill="#ec4899" text-anchor="middle" font-weight="600">+15%</text>
</svg>